<mxfile host="app.diagrams.net" modified="2022-07-01T14:01:34.961Z" agent="5.0 (Windows NT 10.0; Win64; x64) AppleWebKit/537.36 (KHTML, like Gecko) Chrome/103.0.0.0 Safari/537.36" etag="aZg5NXou1zjoG_r2DHVp" version="20.0.4" type="github">
  <diagram id="V54akdUu-68df8Kn8139" name="Page-1">
    <mxGraphModel dx="1038" dy="539" grid="1" gridSize="10" guides="1" tooltips="1" connect="1" arrows="1" fold="1" page="1" pageScale="1" pageWidth="350" pageHeight="300" math="0" shadow="0">
      <root>
        <mxCell id="0" />
        <mxCell id="1" parent="0" />
        <mxCell id="5RJv8IoUJhbd9MUcyov3-1" value="&lt;span style=&quot;border-bottom: 1px dotted&quot;&gt;A&lt;/span&gt;" style="ellipse;whiteSpace=wrap;html=1;align=center;" vertex="1" parent="1">
          <mxGeometry x="125" y="20" width="100" height="50" as="geometry" />
        </mxCell>
        <mxCell id="5RJv8IoUJhbd9MUcyov3-7" style="edgeStyle=none;rounded=0;orthogonalLoop=1;jettySize=auto;html=1;entryX=0;entryY=1;entryDx=0;entryDy=0;" edge="1" parent="1" source="5RJv8IoUJhbd9MUcyov3-2" target="5RJv8IoUJhbd9MUcyov3-1">
          <mxGeometry relative="1" as="geometry" />
        </mxCell>
        <mxCell id="5RJv8IoUJhbd9MUcyov3-2" value="&lt;span style=&quot;border-bottom: 1px dotted&quot;&gt;B&lt;/span&gt;" style="ellipse;whiteSpace=wrap;html=1;align=center;" vertex="1" parent="1">
          <mxGeometry x="25" y="120" width="100" height="50" as="geometry" />
        </mxCell>
        <mxCell id="5RJv8IoUJhbd9MUcyov3-8" style="rounded=0;orthogonalLoop=1;jettySize=auto;html=1;entryX=1;entryY=1;entryDx=0;entryDy=0;" edge="1" parent="1" source="5RJv8IoUJhbd9MUcyov3-3" target="5RJv8IoUJhbd9MUcyov3-1">
          <mxGeometry relative="1" as="geometry" />
        </mxCell>
        <mxCell id="5RJv8IoUJhbd9MUcyov3-3" value="&lt;span style=&quot;border-bottom: 1px dotted&quot;&gt;C&lt;/span&gt;" style="ellipse;whiteSpace=wrap;html=1;align=center;" vertex="1" parent="1">
          <mxGeometry x="225" y="120" width="100" height="50" as="geometry" />
        </mxCell>
        <mxCell id="5RJv8IoUJhbd9MUcyov3-9" style="edgeStyle=none;rounded=0;orthogonalLoop=1;jettySize=auto;html=1;entryX=0.5;entryY=1;entryDx=0;entryDy=0;" edge="1" parent="1" source="5RJv8IoUJhbd9MUcyov3-4" target="5RJv8IoUJhbd9MUcyov3-2">
          <mxGeometry relative="1" as="geometry" />
        </mxCell>
        <mxCell id="5RJv8IoUJhbd9MUcyov3-4" value="&lt;span style=&quot;border-bottom: 1px dotted&quot;&gt;D&lt;/span&gt;" style="ellipse;whiteSpace=wrap;html=1;align=center;" vertex="1" parent="1">
          <mxGeometry x="25" y="230" width="100" height="50" as="geometry" />
        </mxCell>
        <mxCell id="5RJv8IoUJhbd9MUcyov3-10" style="edgeStyle=none;rounded=0;orthogonalLoop=1;jettySize=auto;html=1;entryX=0.5;entryY=1;entryDx=0;entryDy=0;" edge="1" parent="1" source="5RJv8IoUJhbd9MUcyov3-5" target="5RJv8IoUJhbd9MUcyov3-3">
          <mxGeometry relative="1" as="geometry" />
        </mxCell>
        <mxCell id="5RJv8IoUJhbd9MUcyov3-5" value="&lt;span style=&quot;border-bottom: 1px dotted&quot;&gt;E&lt;/span&gt;" style="ellipse;whiteSpace=wrap;html=1;align=center;" vertex="1" parent="1">
          <mxGeometry x="225" y="230" width="100" height="50" as="geometry" />
        </mxCell>
      </root>
    </mxGraphModel>
  </diagram>
</mxfile>
